<?xml version="1.0" encoding="utf-8"?>
<!-- Generator: Adobe Illustrator 15.0.2, SVG Export Plug-In . SVG Version: 6.00 Build 0)  -->
<!DOCTYPE svg PUBLIC "-//W3C//DTD SVG 1.1//EN" "http://www.w3.org/Graphics/SVG/1.1/DTD/svg11.dtd">
<svg version="1.1" id="Layer_1" xmlns="http://www.w3.org/2000/svg" xmlns:xlink="http://www.w3.org/1999/xlink" x="0px" y="0px"
	 width="800px" height="800px" viewBox="0 0 800 800" enable-background="new 0 0 800 800" xml:space="preserve">
<g>
	<g>
		<defs>
			<circle id="SVGID_1_" cx="400" cy="399.519" r="400"/>
		</defs>
		<clipPath id="SVGID_2_">
			<use xlink:href="#SVGID_1_"  overflow="visible"/>
		</clipPath>
		<g clip-path="url(#SVGID_2_)">
			<g>
				<circle fill="#00116A" cx="1015" cy="399.519" r="1015"/>
			</g>
		</g>
	</g>
	<g>
		<defs>
			<circle id="SVGID_3_" cx="400" cy="399.519" r="400"/>
		</defs>
		<clipPath id="SVGID_4_">
			<use xlink:href="#SVGID_3_"  overflow="visible"/>
		</clipPath>
		
			<line clip-path="url(#SVGID_4_)" fill="none" stroke="#FFFFFF" stroke-width="50" stroke-miterlimit="10" x1="14.31" y1="400.461" x2="114.31" y2="400.461"/>
	</g>
	<g>
		<defs>
			<circle id="SVGID_5_" cx="400" cy="399.519" r="400"/>
		</defs>
		<clipPath id="SVGID_6_">
			<use xlink:href="#SVGID_5_"  overflow="visible"/>
		</clipPath>
		
			<line clip-path="url(#SVGID_6_)" fill="none" stroke="#FFFFFF" stroke-width="16.6" stroke-miterlimit="10" x1="20.327" y1="504.988" x2="119.779" y2="494.535"/>
	</g>
	<g>
		<defs>
			<circle id="SVGID_7_" cx="400" cy="399.519" r="400"/>
		</defs>
		<clipPath id="SVGID_8_">
			<use xlink:href="#SVGID_7_"  overflow="visible"/>
		</clipPath>
		
			<line clip-path="url(#SVGID_8_)" fill="none" stroke="#FFFFFF" stroke-width="16.6" stroke-miterlimit="10" x1="36.701" y1="608.372" x2="134.516" y2="587.581"/>
	</g>
	<g>
		<defs>
			<circle id="SVGID_9_" cx="400" cy="399.519" r="400"/>
		</defs>
		<clipPath id="SVGID_10_">
			<use xlink:href="#SVGID_9_"  overflow="visible"/>
		</clipPath>
		
			<line clip-path="url(#SVGID_10_)" fill="none" stroke="#FFFFFF" stroke-width="16.6" stroke-miterlimit="10" x1="63.792" y1="709.478" x2="158.897" y2="678.575"/>
	</g>
	<g>
		<defs>
			<circle id="SVGID_11_" cx="400" cy="399.519" r="400"/>
		</defs>
		<clipPath id="SVGID_12_">
			<use xlink:href="#SVGID_11_"  overflow="visible"/>
		</clipPath>
		
			<line clip-path="url(#SVGID_12_)" fill="none" stroke="#FFFFFF" stroke-width="16.6" stroke-miterlimit="10" x1="101.302" y1="807.198" x2="192.657" y2="766.522"/>
	</g>
	<g>
		<defs>
			<circle id="SVGID_13_" cx="400" cy="399.519" r="400"/>
		</defs>
		<clipPath id="SVGID_14_">
			<use xlink:href="#SVGID_13_"  overflow="visible"/>
		</clipPath>
		
			<line clip-path="url(#SVGID_14_)" fill="none" stroke="#FFFFFF" stroke-width="16.6" stroke-miterlimit="10" x1="101.302" y1="-6.273" x2="192.656" y2="34.4"/>
	</g>
	<g>
		<defs>
			<circle id="SVGID_15_" cx="400" cy="399.519" r="400"/>
		</defs>
		<clipPath id="SVGID_16_">
			<use xlink:href="#SVGID_15_"  overflow="visible"/>
		</clipPath>
		
			<line clip-path="url(#SVGID_16_)" fill="none" stroke="#FFFFFF" stroke-width="16.6" stroke-miterlimit="10" x1="63.791" y1="91.445" x2="158.896" y2="122.349"/>
	</g>
	<g>
		<defs>
			<circle id="SVGID_17_" cx="400" cy="399.519" r="400"/>
		</defs>
		<clipPath id="SVGID_18_">
			<use xlink:href="#SVGID_17_"  overflow="visible"/>
		</clipPath>
		
			<line clip-path="url(#SVGID_18_)" fill="none" stroke="#FFFFFF" stroke-width="16.6" stroke-miterlimit="10" x1="36.699" y1="192.552" x2="134.515" y2="213.344"/>
	</g>
	<g>
		<defs>
			<circle id="SVGID_19_" cx="400" cy="399.519" r="400"/>
		</defs>
		<clipPath id="SVGID_20_">
			<use xlink:href="#SVGID_19_"  overflow="visible"/>
		</clipPath>
		
			<line clip-path="url(#SVGID_20_)" fill="none" stroke="#FFFFFF" stroke-width="16.6" stroke-miterlimit="10" x1="20.325" y1="295.936" x2="119.778" y2="306.39"/>
	</g>
	<g>
		<defs>
			<circle id="SVGID_21_" cx="400" cy="399.519" r="400"/>
		</defs>
		<clipPath id="SVGID_22_">
			<use xlink:href="#SVGID_21_"  overflow="visible"/>
		</clipPath>
		
			<line clip-path="url(#SVGID_22_)" fill="none" stroke="#FFFFFF" stroke-width="50" stroke-miterlimit="10" x1="365.331" y1="25.459" x2="148.823" y2="-99.539"/>
	</g>
	<g>
		<defs>
			<circle id="SVGID_23_" cx="400" cy="399.519" r="400"/>
		</defs>
		<clipPath id="SVGID_24_">
			<use xlink:href="#SVGID_23_"  overflow="visible"/>
		</clipPath>
		
			<line clip-path="url(#SVGID_24_)" fill="none" stroke="#FFFFFF" stroke-width="50" stroke-miterlimit="10" x1="351.532" y1="762.265" x2="135.024" y2="887.263"/>
	</g>
	<g>
		<defs>
			<circle id="SVGID_25_" cx="400" cy="399.519" r="400"/>
		</defs>
		<clipPath id="SVGID_26_">
			<use xlink:href="#SVGID_25_"  overflow="visible"/>
		</clipPath>
		<g clip-path="url(#SVGID_26_)">
			<path fill="#FFFFFF" d="M184,363.942V257.302h30.103c9.276,0,17.479,2.051,24.609,6.151c7.128,4.103,12.634,9.938,16.516,17.506
				s5.847,16.26,5.896,26.073v6.812c0,10.06-1.941,18.873-5.823,26.439c-3.882,7.569-9.424,13.379-16.626,17.433
				c-7.203,4.054-15.589,6.128-25.159,6.226H184z M198.062,268.801v83.643h14.795c10.84,0,19.274-3.372,25.305-10.115
				c6.03-6.743,9.045-16.348,9.045-28.811v-6.231c0-12.118-2.845-21.539-8.533-28.259c-5.689-6.72-13.758-10.128-24.207-10.227
				H198.062L198.062,268.801z"/>
			<path fill="#FFFFFF" d="M313.126,365.407c-10.743,0-19.482-3.526-26.221-10.583c-6.738-7.055-10.107-16.491-10.107-28.308v-2.49
				c0-7.861,1.501-14.879,4.504-21.057c3.003-6.176,7.202-11.01,12.598-14.502c5.395-3.49,11.243-5.237,17.542-5.237
				c10.302,0,18.311,3.396,24.022,10.181c5.713,6.788,8.569,16.506,8.569,29.15v5.64h-53.687c0.194,7.813,2.478,14.125,6.848,18.934
				c4.369,4.81,9.924,7.214,16.664,7.214c4.784,0,8.837-0.977,12.157-2.93c3.32-1.952,6.227-4.541,8.717-7.765l8.275,6.445
				C336.368,360.306,326.407,365.407,313.126,365.407z M311.441,294.362c-5.469,0-10.061,1.99-13.771,5.969
				c-3.711,3.98-6.006,9.559-6.885,16.736h39.697v-1.024c-0.393-6.886-2.247-12.22-5.566-16.003
				C321.597,296.256,317.105,294.362,311.441,294.362z"/>
			<path fill="#FFFFFF" d="M391.495,354.348c4.834,0,9.057-1.465,12.671-4.396c3.613-2.93,5.614-6.592,6.006-10.985h12.817
				c-0.245,4.541-1.808,8.861-4.688,12.964c-2.882,4.102-6.727,7.374-11.536,9.813c-4.81,2.441-9.899,3.662-15.271,3.662
				c-10.792,0-19.373-3.6-25.745-10.803c-6.372-7.202-9.558-17.053-9.558-29.553v-2.271c0-7.714,1.416-14.575,4.248-20.581
				c2.83-6.006,6.896-10.668,12.194-13.988c5.297-3.32,11.561-4.98,18.787-4.98c8.886,0,16.271,2.662,22.156,7.983
				c5.883,5.322,9.02,12.23,9.412,20.728h-12.817c-0.392-5.127-2.333-9.338-5.823-12.634c-3.491-3.296-7.8-4.944-12.927-4.944
				c-6.885,0-12.22,2.479-16.003,7.435c-3.785,4.957-5.676,12.122-5.676,21.497v2.562c0,9.131,1.879,16.163,5.64,21.094
				C379.141,351.883,384.512,354.348,391.495,354.348z"/>
			<path fill="#FFFFFF" d="M543.839,363.942h-69.873v-9.741l36.914-41.016c5.468-6.2,9.24-11.243,11.316-15.125
				c2.075-3.882,3.112-7.897,3.112-12.048c0-5.566-1.685-10.131-5.054-13.696c-3.369-3.562-7.862-5.347-13.477-5.347
				c-6.738,0-11.976,1.917-15.71,5.75c-3.735,3.834-5.604,9.168-5.604,16.003h-13.55c0-9.814,3.161-17.749,9.485-23.804
				c6.322-6.055,14.781-9.082,25.378-9.082c9.911,0,17.749,2.6,23.511,7.8c5.761,5.2,8.643,12.122,8.643,20.764
				c0,10.499-6.689,22.998-20.067,37.5L490.3,352.882h53.54L543.839,363.942L543.839,363.942z"/>
			<path fill="#FFFFFF" d="M615.396,328.127h14.795v11.06h-14.795v24.756h-13.623v-24.756h-48.561v-7.983l47.754-73.9h14.43V328.127
				L615.396,328.127z M568.595,328.127h33.18v-52.296l-1.611,2.931L568.595,328.127z"/>
			<path fill="#FFFFFF" d="M202.164,437.302l34.863,87.012l34.863-87.012h18.237v106.641h-14.062v-41.527l1.318-44.824
				l-35.01,86.353h-10.767l-34.937-86.133l1.392,44.604v41.527H184V437.302H202.164z"/>
			<path fill="#FFFFFF" d="M309.244,503.586c0-7.765,1.524-14.746,4.578-20.947c3.051-6.2,7.299-10.986,12.744-14.355
				c5.443-3.368,11.656-5.054,18.64-5.054c10.791,0,19.519,3.735,26.184,11.206c6.665,7.472,9.998,17.407,9.998,29.811v0.952
				c0,7.716-1.478,14.637-4.431,20.765c-2.955,6.128-7.178,10.901-12.671,14.317c-5.493,3.418-11.805,5.127-18.934,5.127
				c-10.742,0-19.445-3.734-26.11-11.205c-6.665-7.472-9.998-17.358-9.998-29.663V503.586z M322.867,505.196
				c0,8.789,2.038,15.846,6.116,21.167c4.075,5.322,9.532,7.983,16.369,7.983c6.886,0,12.354-2.697,16.406-8.093
				c4.052-5.396,6.079-12.952,6.079-22.669c0-8.69-2.062-15.734-6.188-21.131c-4.127-5.396-9.607-8.094-16.443-8.094
				c-6.69,0-12.085,2.662-16.188,7.983C324.918,487.668,322.867,495.284,322.867,505.196z"/>
			<path fill="#FFFFFF" d="M411.197,464.693l0.438,9.961c6.055-7.616,13.964-11.426,23.73-11.426
				c16.747,0,25.194,9.448,25.342,28.345v52.368h-13.55v-52.44c-0.049-5.713-1.355-9.937-3.918-12.672
				c-2.563-2.733-6.556-4.102-11.976-4.102c-4.395,0-8.252,1.172-11.571,3.516c-3.321,2.345-5.909,5.42-7.765,9.229v56.47h-13.55
				v-79.248L411.197,464.693L411.197,464.693z"/>
			<path fill="#FFFFFF" d="M477.848,503.658c0-12.157,2.88-21.936,8.644-29.334c5.761-7.396,13.305-11.096,22.632-11.096
				c9.276,0,16.626,3.175,22.046,9.521v-41.31h13.55v112.5h-12.451l-0.658-8.496c-5.42,6.642-12.965,9.961-22.633,9.961
				c-9.181,0-16.662-3.76-22.448-11.278c-5.786-7.52-8.68-17.333-8.68-29.443L477.848,503.658L477.848,503.658z M491.397,505.196
				c0,8.984,1.854,16.017,5.565,21.094c3.71,5.079,8.837,7.617,15.381,7.617c8.594,0,14.868-3.855,18.823-11.572v-36.4
				c-4.054-7.471-10.279-11.206-18.677-11.206c-6.642,0-11.817,2.562-15.527,7.689C493.252,487.546,491.397,495.139,491.397,505.196
				z"/>
			<path fill="#FFFFFF" d="M614.664,543.941c-0.782-1.562-1.417-4.346-1.904-8.35c-6.299,6.544-13.818,9.813-22.559,9.813
				c-7.813,0-14.223-2.209-19.227-6.629c-5.006-4.418-7.507-10.021-7.507-16.809c0-8.251,3.138-14.66,9.412-19.228
				c6.273-4.563,15.099-6.848,26.478-6.848h13.184v-6.226c0-4.735-1.417-8.509-4.248-11.315c-2.833-2.808-7.007-4.212-12.524-4.212
				c-4.834,0-8.888,1.221-12.157,3.662c-3.272,2.441-4.907,5.396-4.907,8.861h-13.623c0-3.954,1.403-7.774,4.211-11.463
				c2.807-3.686,6.616-6.603,11.426-8.752c4.81-2.147,10.095-3.223,15.857-3.223c9.13,0,16.284,2.283,21.46,6.848
				c5.175,4.566,7.861,10.854,8.057,18.86v36.475c0,7.276,0.928,13.062,2.783,17.358v1.172h-14.211V543.941z M592.179,533.614
				c4.248,0,8.276-1.099,12.085-3.296c3.81-2.197,6.566-5.054,8.276-8.569v-16.26h-10.62c-16.602,0-24.902,4.859-24.902,14.575
				c0,4.248,1.416,7.569,4.248,9.961C584.097,532.419,587.735,533.614,592.179,533.614z"/>
			<path fill="#FFFFFF" d="M672.159,524.094l18.457-59.399h14.502l-31.86,91.479c-4.933,13.184-12.77,19.774-23.511,19.774
				l-2.563-0.22l-5.054-0.952V563.79l3.662,0.293c4.589,0,8.167-0.928,10.729-2.782c2.563-1.856,4.676-5.249,6.336-10.182
				l3.003-8.057l-28.271-78.369h14.795L672.159,524.094z"/>
		</g>
	</g>
</g>
</svg>
