<?xml version="1.0" encoding="utf-8"?>
<!-- Generator: Adobe Illustrator 16.0.4, SVG Export Plug-In . SVG Version: 6.00 Build 0)  -->
<!DOCTYPE svg PUBLIC "-//W3C//DTD SVG 1.1//EN" "http://www.w3.org/Graphics/SVG/1.1/DTD/svg11.dtd">
<svg version="1.1" id="Layer_1" xmlns="http://www.w3.org/2000/svg" xmlns:xlink="http://www.w3.org/1999/xlink" x="0px" y="0px"
	 width="603.852px" height="486.461px" viewBox="0 0 603.852 486.461" enable-background="new 0 0 603.852 486.461"
	 xml:space="preserve">
<rect x="404.15" width="56.697" height="97.323"/>
<rect x="134.19" width="56.697" height="97.322"/>
<rect x="44.522" y="41.619" fill="#FFFFFF" stroke="#000000" stroke-width="20" stroke-linejoin="round" stroke-miterlimit="10" width="500" height="390.51"/>
<rect x="190.888" y="71.138" width="97.324" height="97.324"/>
<rect x="308.045" y="71.138" width="97.323" height="97.324"/>
<rect x="425.201" y="71.138" width="97.323" height="97.324"/>
<rect x="72.516" y="188.435" width="97.324" height="97.324"/>
<rect x="189.671" y="188.435" width="97.324" height="97.324"/>
<rect x="306.829" y="188.435" width="97.322" height="97.324"/>
<rect x="423.984" y="188.435" width="97.323" height="97.324"/>
<rect x="72.516" y="305.249" width="97.324" height="97.326"/>
<rect x="189.672" y="305.249" width="97.324" height="97.326"/>
<rect x="306.829" y="305.249" width="97.322" height="97.326"/>
<g>
	<line fill="none" stroke="#000000" stroke-width="30" stroke-miterlimit="10" x1="9.182" y1="35.637" x2="576.21" y2="474.6"/>
	
		<line fill="#FFFFFF" stroke="#FFFFFF" stroke-width="30" stroke-miterlimit="10" x1="27.644" y1="11.861" x2="594.672" y2="450.825"/>
</g>
</svg>
