<?xml version="1.0" encoding="utf-8"?>
<!-- Generator: Adobe Illustrator 15.0.2, SVG Export Plug-In . SVG Version: 6.00 Build 0)  -->
<!DOCTYPE svg PUBLIC "-//W3C//DTD SVG 1.1//EN" "http://www.w3.org/Graphics/SVG/1.1/DTD/svg11.dtd">
<svg version="1.1" id="Layer_1" xmlns="http://www.w3.org/2000/svg" xmlns:xlink="http://www.w3.org/1999/xlink" x="0px" y="0px"
	 width="2000px" height="2000px" viewBox="0 0 2000 2000" enable-background="new 0 0 2000 2000" xml:space="preserve">
<g>
	<g>
		<g>
			<path fill="#953B3E" d="M412.102,1851.755c-0.876-0.667-1.75-1.341-2.625-2.012c-2.233-1.705-4.46-3.419-6.676-5.142
				c-1.853-1.441-3.7-2.896-5.544-4.352c-1.177-0.929-2.355-1.857-3.529-2.791c-2.806-2.235-5.604-4.483-8.388-6.75
				c-0.156-0.127-0.311-0.252-0.465-0.379c-93.321-76.096-174.65-170.124-238.432-280.6l883.174-509.9l883.567,510.128
				c-0.204,0.353-0.402,0.706-0.605,1.058c-1.847,3.189-3.705,6.367-5.582,9.528c-0.177,0.3-0.351,0.6-0.527,0.897
				c-11.093,18.659-22.692,36.836-34.768,54.524c-0.861,1.259-1.735,2.512-2.604,3.771c-1.403,2.037-2.811,4.074-4.229,6.101
				c-1.847,2.635-3.709,5.261-5.582,7.878c-0.41,0.576-0.818,1.154-1.229,1.729c-81.904,114.019-188.794,212.876-318.271,287.632
				c-72.254,41.716-147.491,73.584-224.156,96.025c-1.287,0.376-2.576,0.74-3.863,1.111c-2.373,0.683-4.746,1.365-7.124,2.031
				c-3.15,0.881-6.308,1.746-9.467,2.599c-0.544,0.146-1.09,0.297-1.636,0.443c-27.299,7.306-54.898,13.481-82.727,18.514
				c-0.341,0.062-0.682,0.124-1.023,0.187c-3.266,0.587-6.536,1.15-9.809,1.706c-1.171,0.197-2.345,0.396-3.514,0.591
				c-2.399,0.397-4.801,0.783-7.204,1.165c-2.207,0.349-4.409,0.694-6.618,1.028c-1.327,0.202-2.658,0.399-3.989,0.598
				c-3.462,0.51-6.925,1.01-10.39,1.482c-0.042,0.006-0.088,0.012-0.132,0.02c-221.548,30.238-446.673-13.731-639.587-122.318
				c-1.035-0.585-2.068-1.177-3.104-1.767c-2.225-1.263-4.445-2.526-6.66-3.808C481.309,1900.991,445.728,1877.276,412.102,1851.755
				z"/>
		</g>
	</g>
</g>
<line fill="none" stroke="#FFFFFF" stroke-width="16.6" stroke-miterlimit="10" x1="529.848" y1="1896.967" x2="654.849" y2="1680.461"/>
<line fill="none" stroke="#FFFFFF" stroke-width="16.6" stroke-miterlimit="10" x1="1029.848" y1="2030.942" x2="1029.85" y2="1780.942"/>
<line fill="none" stroke="#FFFFFF" stroke-width="16.6" stroke-miterlimit="10" x1="1529.848" y1="1896.967" x2="1404.85" y2="1680.459"/>
</svg>
