<?xml version="1.0" encoding="utf-8"?>
<!-- Generator: Adobe Illustrator 15.0.2, SVG Export Plug-In . SVG Version: 6.00 Build 0)  -->
<!DOCTYPE svg PUBLIC "-//W3C//DTD SVG 1.1//EN" "http://www.w3.org/Graphics/SVG/1.1/DTD/svg11.dtd">
<svg version="1.1" id="Layer_1" xmlns="http://www.w3.org/2000/svg" xmlns:xlink="http://www.w3.org/1999/xlink" x="0px" y="0px"
	 width="2000px" height="2000px" viewBox="0 0 2000 2000" enable-background="new 0 0 2000 2000" xml:space="preserve">
<g>
	<g>
		<g>
			<path fill="#953B3E" d="M1434.013,79.059c-1.017-0.426-2.036-0.846-3.055-1.269c-2.596-1.082-5.191-2.153-7.791-3.211
				c-2.176-0.883-4.357-1.756-6.541-2.625c-1.392-0.555-2.786-1.113-4.181-1.662c-3.341-1.312-6.686-2.612-10.041-3.889
				c-0.188-0.071-0.373-0.143-0.561-0.214C1289.284,23.419,1167.188,0,1039.622,0.001v1019.803l883.567,510.127
				c0.203-0.353,0.41-0.701,0.613-1.054c1.839-3.193,3.659-6.393,5.46-9.599c0.172-0.304,0.345-0.604,0.516-0.906
				c10.611-18.937,20.553-38.068,29.835-57.372c0.658-1.375,1.309-2.758,1.962-4.138c1.063-2.236,2.126-4.473,3.172-6.713
				c1.358-2.916,2.699-5.843,4.03-8.773c0.295-0.644,0.592-1.285,0.883-1.929c57.791-127.941,89.961-269.938,89.961-419.448
				c0-83.432-10.021-164.522-28.917-242.138c-0.318-1.301-0.647-2.602-0.97-3.9c-0.594-2.396-1.191-4.794-1.801-7.185
				c-0.813-3.17-1.643-6.335-2.484-9.498c-0.146-0.546-0.287-1.093-0.434-1.64c-7.322-27.295-15.773-54.284-25.33-80.899
				c-0.117-0.326-0.234-0.652-0.354-0.979c-1.123-3.123-2.27-6.236-3.426-9.349c-0.413-1.113-0.827-2.227-1.245-3.338
				c-0.855-2.277-1.722-4.549-2.593-6.821c-0.802-2.084-1.604-4.167-2.418-6.245c-0.488-1.253-0.984-2.504-1.479-3.755
				c-1.289-3.253-2.588-6.502-3.908-9.738c-0.019-0.041-0.034-0.082-0.05-0.122c-84.587-206.986-235.228-379.966-425.725-492.741
				c-1.024-0.604-2.055-1.204-3.082-1.805c-2.205-1.294-4.411-2.586-6.628-3.864C1511.253,114.375,1472.926,95.419,1434.013,79.059z
				"/>
		</g>
	</g>
</g>
<line fill="none" stroke="#FFFFFF" stroke-width="16.6" stroke-miterlimit="10" x1="1679.367" y1="655.942" x2="1895.873" y2="530.942"/>
<line fill="none" stroke="#FFFFFF" stroke-width="16.6" stroke-miterlimit="10" x1="1404.849" y1="381.423" x2="1529.848" y2="164.917"/>
<g>
	<g>
		<g>
			<path fill="#FFFFFF" d="M1211.809,281.786h-155.119V260.16l81.949-91.055c12.14-13.765,20.515-24.958,25.121-33.577
				c4.605-8.617,6.91-17.532,6.91-26.747c0-12.357-3.738-22.492-11.219-30.406c-7.479-7.912-17.453-11.87-29.918-11.87
				c-14.959,0-26.584,4.255-34.877,12.764c-8.293,8.511-12.439,20.353-12.439,35.528h-30.08c0-21.788,7.018-39.402,21.057-52.844
				c14.037-13.44,32.816-20.162,56.341-20.162c22.004,0,39.401,5.772,52.192,17.316c12.789,11.545,19.188,26.91,19.188,46.097
				c0,23.307-14.854,51.056-44.553,83.25l-63.412,68.779h118.858V281.786L1211.809,281.786z"/>
		</g>
	</g>
</g>
<g>
	<g>
		<g>
			<path fill="#FFFFFF" d="M1886.258,995.251h22.603c14.198-0.216,25.364-3.955,33.496-11.219
				c8.129-7.263,12.192-17.073,12.192-29.432c0-27.748-13.819-41.625-41.461-41.625c-13.008,0-23.389,3.716-31.139,11.139
				c-7.751,7.427-11.626,17.264-11.626,29.512h-30.08c0-18.752,6.854-34.333,20.568-46.747
				c13.712-12.41,31.138-18.617,52.275-18.617c22.328,0,39.836,5.909,52.519,17.725c12.684,11.815,19.024,28.237,19.024,49.267
				c0,10.3-3.334,20.271-10,29.918c-6.668,9.649-15.748,16.857-27.235,21.626c13.008,4.12,23.061,10.949,30.162,20.487
				c7.1,9.54,10.649,21.192,10.649,34.958c0,21.247-6.938,38.104-20.812,50.567c-13.877,12.468-31.927,18.698-54.146,18.698
				c-22.223,0-40.3-6.016-54.228-18.048c-13.931-12.032-20.895-27.911-20.895-47.642h30.243c0,12.467,4.065,22.438,12.196,29.918
				c8.129,7.479,19.022,11.22,32.682,11.22c14.523,0,25.635-3.793,33.332-11.382c7.695-7.587,11.545-18.48,11.545-32.684
				c0-13.765-4.229-24.334-12.684-31.706c-8.455-7.37-20.648-11.164-36.584-11.382h-22.603v-24.552H1886.258z"/>
		</g>
	</g>
</g>
</svg>
