<?xml version="1.0" encoding="utf-8"?>
<!-- Generator: Adobe Illustrator 15.0.2, SVG Export Plug-In . SVG Version: 6.00 Build 0)  -->
<!DOCTYPE svg PUBLIC "-//W3C//DTD SVG 1.1//EN" "http://www.w3.org/Graphics/SVG/1.1/DTD/svg11.dtd">
<svg version="1.1" id="Layer_1" xmlns="http://www.w3.org/2000/svg" xmlns:xlink="http://www.w3.org/1999/xlink" x="0px" y="0px"
	 width="313.253px" height="283.922px" viewBox="0 0 313.253 283.922" enable-background="new 0 0 313.253 283.922"
	 xml:space="preserve">
<rect x="216.751" y="158.423" transform="matrix(-0.866 0.5 -0.5 -0.866 545.8201 176.5925)" fill="#FFFFFF" width="65.001" height="6"/>
<rect x="131.751" y="69.777" transform="matrix(-0.5 0.866 -0.866 -0.5 309.403 -33.0833)" fill="#FFFFFF" width="65.001" height="6"/>
<g>
	<path fill="#FFFFFF" d="M30.968,74.426h-7.901V22.047l-15.845,5.82V20.73l22.515-8.454h1.232V74.426z"/>
	<path fill="#FFFFFF" d="M94.519,74.426H53.993v-5.65l21.41-23.789c3.171-3.596,5.359-6.521,6.563-8.772
		c1.204-2.252,1.806-4.581,1.806-6.988c0-3.229-0.977-5.876-2.931-7.944c-1.954-2.067-4.56-3.101-7.816-3.101
		c-3.908,0-6.946,1.112-9.112,3.335c-2.167,2.223-3.25,5.317-3.25,9.282h-7.859c0-5.692,1.833-10.294,5.501-13.806
		c3.667-3.511,8.574-5.268,14.719-5.268c5.749,0,10.294,1.508,13.636,4.524c3.341,3.016,5.013,7.03,5.013,12.043
		c0,6.089-3.88,13.339-11.64,21.75L63.466,68.011h31.053V74.426z"/>
</g>
<g>
	<g>
		<g>
			<g>
				<g>
					<g>
						<g>
							<path fill="#FFFFFF" d="M269.577,249.224c-5.522,0-10.075,1.622-13.657,4.864c-3.583,3.243-5.374,7.313-5.374,12.213h7.859
								c0-3.2,1.012-5.77,3.037-7.71c2.024-1.939,4.736-2.91,8.135-2.91c7.222,0,10.833,3.626,10.833,10.875
								c0,3.229-1.062,5.792-3.187,7.689s-5.041,2.874-8.751,2.931h-5.904v6.415h5.904c1.286,0.018,2.468,0.135,3.567,0.331h12.954
								c-1.698-1.658-3.847-2.904-6.453-3.729c3.001-1.246,5.374-3.129,7.115-5.65c1.742-2.521,2.612-5.125,2.612-7.816
								c0-5.494-1.656-9.784-4.97-12.871S275.411,249.224,269.577,249.224z"/>
						</g>
					</g>
				</g>
			</g>
		</g>
	</g>
</g>
</svg>
