<?xml version="1.0" encoding="utf-8"?>
<!-- Generator: Adobe Illustrator 16.0.4, SVG Export Plug-In . SVG Version: 6.00 Build 0)  -->
<!DOCTYPE svg PUBLIC "-//W3C//DTD SVG 1.0//EN" "http://www.w3.org/TR/2001/REC-SVG-20010904/DTD/svg10.dtd">
<svg version="1.0" id="Layer_1" xmlns="http://www.w3.org/2000/svg" xmlns:xlink="http://www.w3.org/1999/xlink" x="0px" y="0px"
	 width="276px" height="276px" viewBox="0 0 276 276" enable-background="new 0 0 276 276" xml:space="preserve">
<rect x="210" y="117.653" transform="matrix(0.5001 0.866 -0.866 0.5001 236.5176 -109.3889)" fill="#FFFFFF" width="5.999" height="64.999"/>
<rect x="124" y="29.5" transform="matrix(0.8661 0.4999 -0.4999 0.8661 47.9969 -55.1815)" fill="#FFFFFF" width="6" height="65"/>
<g>
	<path fill="#FFFFFF" d="M63.241,71.5H21.317v-5.845l22.148-24.609c3.281-3.72,5.544-6.746,6.79-9.075
		c1.245-2.329,1.868-4.739,1.868-7.229c0-3.34-1.011-6.079-3.032-8.218c-2.021-2.138-4.717-3.208-8.086-3.208
		c-4.043,0-7.185,1.15-9.426,3.45c-2.241,2.3-3.362,5.5-3.362,9.602h-8.13c0-5.889,1.896-10.649,5.691-14.282
		c3.794-3.632,8.87-5.449,15.227-5.449c5.947,0,10.649,1.56,14.106,4.68c3.457,3.12,5.186,7.273,5.186,12.458
		c0,6.299-4.014,13.799-12.041,22.5L31.117,64.864h32.124V71.5z"/>
</g>
<path fill="#FFFFFF" d="M244.023,256.328c1.801-2.607,2.702-5.303,2.702-8.086c0-5.684-1.714-10.122-5.142-13.315
	c-3.428-3.192-8.159-4.79-14.194-4.79c-5.713,0-10.423,1.776-14.128,5.13c-3.707,3.355-5.56,7.733-5.56,12.733h8.13
	c0-4,1.047-6.067,3.143-8.075c2.094-2.006,4.899-3.06,8.415-3.06c7.471,0,11.206,3.726,11.206,11.226
	c0,3.34-1.099,5.954-3.296,7.916c-2.197,1.963-5.215,2.993-9.053,2.993H220v7h6.247c4.307,0,7.603,0.928,9.888,2.92
	c2.004,1.748,3.128,4.004,3.375,7.08h8.145c-0.182-3.219-1.125-5.984-2.84-8.29c-1.92-2.577-4.637-4.423-8.152-5.537
	C239.768,260.884,242.221,258.936,244.023,256.328z"/>
<g>
</g>
<g>
</g>
<g>
</g>
<g>
</g>
<g>
</g>
<g>
</g>
</svg>
