<?xml version="1.0" encoding="utf-8"?>
<!-- Generator: Adobe Illustrator 15.0.2, SVG Export Plug-In  -->
<!DOCTYPE svg PUBLIC "-//W3C//DTD SVG 1.1//EN" "http://www.w3.org/Graphics/SVG/1.1/DTD/svg11.dtd" [
	<!ENTITY ns_flows "http://ns.adobe.com/Flows/1.0/">
]>
<svg version="1.1"
	 xmlns="http://www.w3.org/2000/svg" xmlns:xlink="http://www.w3.org/1999/xlink" xmlns:a="http://ns.adobe.com/AdobeSVGViewerExtensions/3.0/"
	 x="0px" y="0px" width="2000px" height="2000px" viewBox="29.848 30.942 2000 2000"
	 overflow="visible" enable-background="new 29.848 30.942 2000 2000" xml:space="preserve">
<defs>
</defs>
<g display="none" opacity="0.1">
	<g display="inline">
		<circle fill="#ED1C24" cx="1029.847" cy="1030.942" r="1000"/>
	</g>
</g>
<g display="none">
	<g display="inline">
		<g>
			<path fill="#00116A" d="M625.608,79.059c1.016-0.426,2.036-0.846,3.056-1.269c2.594-1.082,5.19-2.153,7.79-3.212
				c2.176-0.883,4.356-1.755,6.54-2.625c1.394-0.554,2.787-1.111,4.182-1.662c3.339-1.312,6.686-2.61,10.041-3.889
				c0.186-0.07,0.373-0.142,0.56-0.213C770.337,23.419,892.432,0,1019.997,0v1019.804l-883.566,510.127
				c-0.204-0.353-0.411-0.703-0.614-1.054c-1.839-3.193-3.661-6.393-5.461-9.599c-0.171-0.305-0.343-0.604-0.514-0.906
				c-10.613-18.937-20.553-38.07-29.835-57.373c-0.659-1.374-1.308-2.757-1.962-4.138c-1.064-2.235-2.126-4.471-3.172-6.712
				c-1.358-2.916-2.699-5.843-4.03-8.773c-0.294-0.644-0.591-1.287-0.882-1.93C32.169,1311.506-0.001,1169.509,0,1019.999
				c-0.001-83.432,10.02-164.522,28.916-242.138c0.318-1.3,0.647-2.6,0.97-3.9c0.594-2.396,1.193-4.794,1.802-7.185
				c0.812-3.172,1.641-6.336,2.484-9.499c0.145-0.545,0.286-1.093,0.433-1.639c7.322-27.293,15.772-54.285,25.33-80.899
				c0.117-0.327,0.234-0.652,0.351-0.979c1.125-3.124,2.271-6.238,3.428-9.35c0.413-1.113,0.827-2.227,1.245-3.337
				c0.854-2.278,1.722-4.549,2.593-6.822c0.801-2.084,1.603-4.166,2.417-6.245c0.489-1.252,0.984-2.504,1.479-3.755
				c1.289-3.253,2.587-6.502,3.909-9.738c0.017-0.041,0.034-0.083,0.05-0.123c84.586-206.987,235.228-379.966,425.724-492.74
				c1.024-0.606,2.055-1.204,3.083-1.805c2.205-1.295,4.41-2.586,6.626-3.865C548.367,114.374,586.694,95.418,625.608,79.059z"/>
		</g>
	</g>
</g>
<g display="none">
	<g display="inline">
		<g>
			<path fill="#953B3E" d="M625.608,79.059c1.016-0.426,2.036-0.846,3.056-1.269c2.594-1.082,5.19-2.153,7.79-3.212
				c2.176-0.883,4.356-1.755,6.54-2.625c1.394-0.554,2.787-1.111,4.182-1.662c3.339-1.312,6.686-2.61,10.041-3.889
				c0.186-0.07,0.373-0.142,0.56-0.213C770.337,23.419,892.432,0,1019.997,0v1019.804l-883.566,510.127
				c-0.204-0.353-0.411-0.703-0.614-1.054c-1.839-3.193-3.661-6.393-5.461-9.599c-0.171-0.305-0.343-0.604-0.514-0.906
				c-10.613-18.937-20.553-38.07-29.835-57.373c-0.659-1.374-1.308-2.757-1.962-4.138c-1.064-2.235-2.126-4.471-3.172-6.712
				c-1.358-2.916-2.699-5.843-4.03-8.773c-0.294-0.644-0.591-1.287-0.882-1.93C32.169,1311.506-0.001,1169.509,0,1019.999
				c-0.001-83.432,10.02-164.522,28.916-242.138c0.318-1.3,0.647-2.6,0.97-3.9c0.594-2.396,1.193-4.794,1.802-7.185
				c0.812-3.172,1.641-6.336,2.484-9.499c0.145-0.545,0.286-1.093,0.433-1.639c7.322-27.293,15.772-54.285,25.33-80.899
				c0.117-0.327,0.234-0.652,0.351-0.979c1.125-3.124,2.271-6.238,3.428-9.35c0.413-1.113,0.827-2.227,1.245-3.337
				c0.854-2.278,1.722-4.549,2.593-6.822c0.801-2.084,1.603-4.166,2.417-6.245c0.489-1.252,0.984-2.504,1.479-3.755
				c1.289-3.253,2.587-6.502,3.909-9.738c0.017-0.041,0.034-0.083,0.05-0.123c84.586-206.987,235.228-379.966,425.724-492.74
				c1.024-0.606,2.055-1.204,3.083-1.805c2.205-1.295,4.41-2.586,6.626-3.865C548.367,114.374,586.694,95.418,625.608,79.059z"/>
		</g>
	</g>
</g>
<line display="none" fill="none" stroke="#FFFFFF" stroke-width="50" stroke-miterlimit="10" x1="29.848" y1="1030.942" x2="279.848" y2="1030.942"/>
<line display="none" fill="none" stroke="#FFFFFF" stroke-width="16.6" stroke-miterlimit="10" x1="925.319" y1="36.419" x2="935.772" y2="135.872"/>
<line display="none" fill="none" stroke="#FFFFFF" stroke-width="16.6" stroke-miterlimit="10" x1="35.326" y1="1135.47" x2="134.778" y2="1125.017"/>
<line display="none" fill="none" stroke="#FFFFFF" stroke-width="16.6" stroke-miterlimit="10" x1="821.936" y1="52.794" x2="842.727" y2="150.608"/>
<line display="none" fill="none" stroke="#FFFFFF" stroke-width="16.6" stroke-miterlimit="10" x1="51.7" y1="1238.854" x2="149.515" y2="1218.062"/>
<line display="none" fill="none" stroke="#FFFFFF" stroke-width="16.6" stroke-miterlimit="10" x1="720.831" y1="79.885" x2="751.732" y2="174.991"/>
<line display="none" fill="none" stroke="#FFFFFF" stroke-width="16.6" stroke-miterlimit="10" x1="78.791" y1="1339.959" x2="173.897" y2="1309.057"/>
<line display="none" fill="none" stroke="#FFFFFF" stroke-width="16.6" stroke-miterlimit="10" x1="623.111" y1="117.396" x2="663.784" y2="208.751"/>
<line display="none" fill="none" stroke="#FFFFFF" stroke-width="16.6" stroke-miterlimit="10" x1="116.302" y1="1437.68" x2="207.657" y2="1397.004"/>
<line display="none" fill="none" stroke="#FFFFFF" stroke-width="16.6" stroke-miterlimit="10" x1="442.062" y1="221.925" x2="500.839" y2="302.827"/>
<line display="none" fill="none" stroke="#FFFFFF" stroke-width="16.6" stroke-miterlimit="10" x1="360.716" y1="287.798" x2="427.628" y2="362.112"/>
<line display="none" fill="none" stroke="#FFFFFF" stroke-width="16.6" stroke-miterlimit="10" x1="286.702" y1="361.812" x2="361.016" y2="428.726"/>
<line display="none" fill="none" stroke="#FFFFFF" stroke-width="16.6" stroke-miterlimit="10" x1="220.83" y1="443.158" x2="301.731" y2="501.937"/>
<line display="none" fill="none" stroke="#FFFFFF" stroke-width="16.6" stroke-miterlimit="10" x1="116.301" y1="624.208" x2="207.656" y2="664.882"/>
<line display="none" fill="none" stroke="#FFFFFF" stroke-width="16.6" stroke-miterlimit="10" x1="78.79" y1="721.927" x2="173.896" y2="752.83"/>
<line display="none" fill="none" stroke="#FFFFFF" stroke-width="16.6" stroke-miterlimit="10" x1="51.699" y1="823.033" x2="149.514" y2="843.825"/>
<line display="none" fill="none" stroke="#FFFFFF" stroke-width="16.6" stroke-miterlimit="10" x1="35.325" y1="926.417" x2="134.778" y2="936.871"/>
<line display="none" fill="none" stroke="#FFFFFF" stroke-width="15" stroke-miterlimit="10" x1="148.812" y1="1515.931" x2="365.318" y2="1390.931"/>
<line display="none" fill="none" stroke="#FFFFFF" stroke-width="50" stroke-miterlimit="10" x1="994.849" y1="280.941" x2="994.847" y2="30.942"/>
<line display="none" fill="none" stroke="#FFFFFF" stroke-width="50" stroke-miterlimit="10" x1="654.85" y1="381.422" x2="529.848" y2="164.917"/>
<line display="none" fill="none" stroke="#FFFFFF" stroke-width="50" stroke-miterlimit="10" x1="380.33" y1="655.94" x2="163.822" y2="530.942"/>
<g display="none">
	<g display="inline">
		<g>
			<path fill="#00116A" d="M412.102,1851.755c-0.876-0.667-1.75-1.341-2.625-2.012c-2.234-1.705-4.46-3.419-6.676-5.141
				c-1.853-1.442-3.7-2.896-5.544-4.352c-1.177-0.929-2.356-1.857-3.529-2.791c-2.806-2.235-5.604-4.483-8.388-6.75
				c-0.156-0.127-0.311-0.252-0.465-0.379c-93.321-76.096-174.65-170.124-238.432-280.599l883.174-509.901l883.568,510.128
				c-0.204,0.352-0.403,0.706-0.606,1.058c-1.847,3.189-3.705,6.367-5.582,9.528c-0.177,0.3-0.351,0.6-0.527,0.898
				c-11.093,18.659-22.693,36.835-34.768,54.524c-0.861,1.259-1.735,2.512-2.603,3.77c-1.404,2.038-2.811,4.075-4.229,6.101
				c-1.847,2.635-3.709,5.261-5.582,7.878c-0.41,0.576-0.818,1.154-1.229,1.729c-81.905,114.019-188.794,212.876-318.272,287.632
				c-72.254,41.716-147.491,73.584-224.156,96.026c-1.287,0.376-2.576,0.74-3.863,1.111c-2.373,0.683-4.747,1.365-7.124,2.031
				c-3.151,0.881-6.308,1.746-9.467,2.599c-0.544,0.146-1.09,0.297-1.636,0.443c-27.299,7.306-54.898,13.482-82.726,18.514
				c-0.341,0.062-0.682,0.124-1.024,0.186c-3.265,0.587-6.536,1.151-9.809,1.706c-1.17,0.198-2.344,0.397-3.513,0.591
				c-2.4,0.398-4.801,0.783-7.204,1.165c-2.207,0.349-4.41,0.695-6.618,1.028c-1.328,0.203-2.659,0.4-3.99,0.598
				c-3.462,0.51-6.925,1.01-10.389,1.483c-0.042,0.006-0.088,0.012-0.132,0.019c-221.548,30.239-446.673-13.731-639.587-122.318
				c-1.035-0.585-2.069-1.177-3.104-1.767c-2.224-1.262-4.445-2.526-6.66-3.807C481.309,1900.991,445.728,1877.276,412.102,1851.755
				z"/>
		</g>
	</g>
</g>
<g display="none">
	<g display="inline">
		<g>
			<path fill="#953B3E" d="M412.102,1851.755c-0.876-0.667-1.75-1.341-2.625-2.012c-2.234-1.705-4.46-3.419-6.676-5.141
				c-1.853-1.442-3.7-2.896-5.544-4.352c-1.177-0.929-2.356-1.857-3.529-2.791c-2.806-2.235-5.604-4.483-8.388-6.75
				c-0.156-0.127-0.311-0.252-0.465-0.379c-93.321-76.096-174.65-170.124-238.432-280.599l883.174-509.901l883.568,510.128
				c-0.204,0.352-0.403,0.706-0.606,1.058c-1.847,3.189-3.705,6.367-5.582,9.528c-0.177,0.3-0.351,0.6-0.527,0.898
				c-11.093,18.659-22.693,36.835-34.768,54.524c-0.861,1.259-1.735,2.512-2.603,3.77c-1.404,2.038-2.811,4.075-4.229,6.101
				c-1.847,2.635-3.709,5.261-5.582,7.878c-0.41,0.576-0.818,1.154-1.229,1.729c-81.905,114.019-188.794,212.876-318.272,287.632
				c-72.254,41.716-147.491,73.584-224.156,96.026c-1.287,0.376-2.576,0.74-3.863,1.111c-2.373,0.683-4.747,1.365-7.124,2.031
				c-3.151,0.881-6.308,1.746-9.467,2.599c-0.544,0.146-1.09,0.297-1.636,0.443c-27.299,7.306-54.898,13.482-82.726,18.514
				c-0.341,0.062-0.682,0.124-1.024,0.186c-3.265,0.587-6.536,1.151-9.809,1.706c-1.17,0.198-2.344,0.397-3.513,0.591
				c-2.4,0.398-4.801,0.783-7.204,1.165c-2.207,0.349-4.41,0.695-6.618,1.028c-1.328,0.203-2.659,0.4-3.99,0.598
				c-3.462,0.51-6.925,1.01-10.389,1.483c-0.042,0.006-0.088,0.012-0.132,0.019c-221.548,30.239-446.673-13.731-639.587-122.318
				c-1.035-0.585-2.069-1.177-3.104-1.767c-2.224-1.262-4.445-2.526-6.66-3.807C481.309,1900.991,445.728,1877.276,412.102,1851.755
				z"/>
		</g>
	</g>
</g>
<line display="none" fill="none" stroke="#FFFFFF" stroke-width="16.6" stroke-miterlimit="10" x1="529.848" y1="1896.967" x2="654.849" y2="1680.461"/>
<line display="none" fill="none" stroke="#FFFFFF" stroke-width="16.6" stroke-miterlimit="10" x1="1029.848" y1="2030.942" x2="1029.85" y2="1780.942"/>
<line display="none" fill="none" stroke="#FFFFFF" stroke-width="16.6" stroke-miterlimit="10" x1="1529.848" y1="1896.967" x2="1404.85" y2="1680.459"/>
<g>
	<g>
		<g>
			<path fill="#00116A" d="M1434.013,79.059c-1.017-0.426-2.036-0.846-3.055-1.269c-2.596-1.082-5.191-2.153-7.791-3.211
				c-2.176-0.883-4.357-1.756-6.541-2.625c-1.392-0.555-2.786-1.113-4.181-1.662c-3.34-1.312-6.685-2.612-10.041-3.889
				c-0.188-0.071-0.373-0.143-0.56-0.214C1289.284,23.419,1167.188,0,1039.622,0.001v1019.803l883.567,510.127
				c0.204-0.353,0.411-0.701,0.614-1.054c1.839-3.193,3.659-6.393,5.46-9.599c0.172-0.303,0.345-0.604,0.515-0.906
				c10.612-18.936,20.553-38.068,29.835-57.372c0.659-1.375,1.309-2.758,1.962-4.138c1.064-2.236,2.126-4.472,3.172-6.713
				c1.358-2.916,2.699-5.842,4.03-8.773c0.295-0.644,0.592-1.285,0.883-1.929c57.791-127.941,89.961-269.937,89.961-419.448
				c0-83.432-10.021-164.523-28.917-242.138c-0.318-1.301-0.647-2.601-0.97-3.9c-0.594-2.397-1.191-4.794-1.801-7.185
				c-0.813-3.17-1.642-6.335-2.484-9.498c-0.146-0.546-0.287-1.093-0.433-1.639c-7.323-27.295-15.774-54.285-25.331-80.9
				c-0.117-0.326-0.234-0.652-0.353-0.979c-1.123-3.123-2.269-6.237-3.426-9.349c-0.413-1.113-0.827-2.227-1.245-3.338
				c-0.855-2.277-1.722-4.549-2.593-6.821c-0.801-2.084-1.604-4.167-2.418-6.245c-0.488-1.253-0.984-2.504-1.479-3.755
				c-1.289-3.253-2.588-6.502-3.908-9.738c-0.019-0.041-0.034-0.083-0.05-0.123c-84.587-206.986-235.228-379.966-425.725-492.741
				c-1.024-0.604-2.054-1.204-3.082-1.805c-2.205-1.294-4.411-2.586-6.628-3.864C1511.253,114.375,1472.926,95.419,1434.013,79.059z
				"/>
		</g>
	</g>
</g>
<g display="none">
	<g display="inline">
		<g>
			<path fill="#953B3E" d="M1434.013,79.059c-1.017-0.426-2.036-0.846-3.055-1.269c-2.596-1.082-5.191-2.153-7.791-3.211
				c-2.176-0.883-4.357-1.756-6.541-2.625c-1.392-0.555-2.786-1.113-4.181-1.662c-3.34-1.312-6.685-2.612-10.041-3.889
				c-0.188-0.071-0.373-0.143-0.56-0.214C1289.284,23.419,1167.188,0,1039.622,0.001v1019.803l883.567,510.127
				c0.204-0.353,0.411-0.701,0.614-1.054c1.839-3.193,3.659-6.393,5.46-9.599c0.172-0.303,0.345-0.604,0.515-0.906
				c10.612-18.936,20.553-38.068,29.835-57.372c0.659-1.375,1.309-2.758,1.962-4.138c1.064-2.236,2.126-4.472,3.172-6.713
				c1.358-2.916,2.699-5.842,4.03-8.773c0.295-0.644,0.592-1.285,0.883-1.929c57.791-127.941,89.961-269.937,89.961-419.448
				c0-83.432-10.021-164.523-28.917-242.138c-0.318-1.301-0.647-2.601-0.97-3.9c-0.594-2.397-1.191-4.794-1.801-7.185
				c-0.813-3.17-1.642-6.335-2.484-9.498c-0.146-0.546-0.287-1.093-0.433-1.639c-7.323-27.295-15.774-54.285-25.331-80.9
				c-0.117-0.326-0.234-0.652-0.353-0.979c-1.123-3.123-2.269-6.237-3.426-9.349c-0.413-1.113-0.827-2.227-1.245-3.338
				c-0.855-2.277-1.722-4.549-2.593-6.821c-0.801-2.084-1.604-4.167-2.418-6.245c-0.488-1.253-0.984-2.504-1.479-3.755
				c-1.289-3.253-2.588-6.502-3.908-9.738c-0.019-0.041-0.034-0.083-0.05-0.123c-84.587-206.986-235.228-379.966-425.725-492.741
				c-1.024-0.604-2.054-1.204-3.082-1.805c-2.205-1.294-4.411-2.586-6.628-3.864C1511.253,114.375,1472.926,95.419,1434.013,79.059z
				"/>
		</g>
	</g>
</g>
<line fill="none" stroke="#FFFFFF" stroke-width="16.6" stroke-miterlimit="10" x1="1679.367" y1="655.942" x2="1895.873" y2="530.942"/>
<line fill="none" stroke="#FFFFFF" stroke-width="16.6" stroke-miterlimit="10" x1="1404.849" y1="381.423" x2="1529.848" y2="164.917"/>
<g>
	<g>
		<g>
			<path fill="#FFFFFF" d="M1211.809,281.786h-155.119V260.16l81.949-91.055c12.139-13.765,20.514-24.958,25.121-33.577
				c4.605-8.617,6.91-17.532,6.91-26.747c0-12.357-3.738-22.492-11.219-30.406c-7.479-7.912-17.453-11.87-29.918-11.87
				c-14.959,0-26.584,4.255-34.877,12.764c-8.293,8.511-12.439,20.353-12.439,35.528h-30.08c0-21.788,7.017-39.402,21.056-52.844
				c14.037-13.44,32.817-20.162,56.341-20.162c22.004,0,39.402,5.772,52.193,17.316c12.789,11.545,19.188,26.91,19.188,46.097
				c0,23.307-14.854,51.056-44.553,83.25l-63.412,68.779h118.859V281.786z"/>
		</g>
	</g>
</g>
<g>
	<g>
		<g>
			<path fill="#FFFFFF" d="M1886.258,995.251h22.602c14.199-0.216,25.365-3.955,33.496-11.219
				c8.129-7.262,12.193-17.073,12.193-29.431c0-27.748-13.82-41.625-41.461-41.625c-13.008,0-23.389,3.715-31.139,11.138
				c-7.751,7.427-11.626,17.264-11.626,29.512h-30.08c0-18.752,6.854-34.333,20.568-46.747
				c13.712-12.41,31.138-18.617,52.276-18.617c22.328,0,39.836,5.909,52.518,17.724c12.684,11.816,19.025,28.238,19.025,49.267
				c0,10.3-3.334,20.271-10,29.918c-6.668,9.649-15.748,16.857-27.236,21.626c13.008,4.12,23.061,10.949,30.162,20.487
				c7.1,9.54,10.65,21.193,10.65,34.958c0,21.247-6.938,38.104-20.812,50.568c-13.877,12.467-31.926,18.698-54.145,18.698
				c-22.223,0-40.3-6.016-54.228-18.048c-13.93-12.032-20.894-27.911-20.894-47.642h30.243c0,12.467,4.065,22.438,12.196,29.918
				c8.129,7.479,19.023,11.22,32.682,11.22c14.523,0,25.635-3.793,33.332-11.382c7.695-7.587,11.545-18.48,11.545-32.683
				c0-13.765-4.229-24.334-12.684-31.706c-8.455-7.37-20.648-11.164-36.584-11.382h-22.602V995.251z"/>
		</g>
	</g>
</g>
<g display="none">
	<g display="inline">
		<g>
			<path fill="#ED1C24" d="M1434.013,80.051c-1.017-0.426-2.036-0.846-3.055-1.269c-2.596-1.082-5.191-2.153-7.791-3.211
				c-2.176-0.883-4.357-1.756-6.541-2.625c-1.392-0.555-2.786-1.113-4.181-1.662c-3.34-1.312-6.685-2.612-10.041-3.889
				c-0.188-0.071-0.373-0.143-0.56-0.214c-112.561-42.77-234.656-66.189-362.223-66.188v1019.803l883.567,510.127
				c0.204-0.353,0.411-0.701,0.614-1.054c1.839-3.193,3.659-6.393,5.46-9.599c0.172-0.303,0.345-0.604,0.515-0.906
				c10.612-18.936,20.553-38.068,29.835-57.372c0.659-1.375,1.309-2.758,1.962-4.138c1.064-2.236,2.126-4.472,3.172-6.713
				c1.358-2.916,2.699-5.842,4.03-8.773c0.295-0.644,0.592-1.285,0.883-1.929c57.791-127.941,89.961-269.937,89.961-419.448
				c0-83.432-10.021-164.523-28.917-242.138c-0.318-1.301-0.647-2.601-0.97-3.9c-0.594-2.397-1.191-4.794-1.801-7.185
				c-0.813-3.17-1.642-6.335-2.484-9.498c-0.146-0.546-0.287-1.093-0.433-1.639c-7.323-27.295-15.774-54.285-25.331-80.9
				c-0.117-0.326-0.234-0.652-0.353-0.979c-1.123-3.123-2.269-6.237-3.426-9.349c-0.413-1.113-0.827-2.227-1.245-3.338
				c-0.855-2.277-1.722-4.549-2.593-6.821c-0.801-2.084-1.604-4.167-2.418-6.245c-0.488-1.253-0.984-2.504-1.479-3.755
				c-1.289-3.253-2.588-6.502-3.908-9.738c-0.019-0.041-0.034-0.083-0.05-0.123c-84.587-206.986-235.228-379.966-425.725-492.741
				c-1.024-0.604-2.054-1.204-3.082-1.805c-2.205-1.294-4.411-2.586-6.628-3.864C1511.253,115.367,1472.926,96.411,1434.013,80.051z
				"/>
		</g>
	</g>
</g>
<g display="none">
	<g display="inline">
		<g>
			<path fill="#2E3192" d="M412.102,1852.748c-0.876-0.667-1.75-1.341-2.625-2.012c-2.234-1.705-4.46-3.419-6.676-5.141
				c-1.853-1.442-3.7-2.896-5.544-4.352c-1.177-0.929-2.356-1.857-3.529-2.791c-2.806-2.235-5.604-4.483-8.388-6.75
				c-0.156-0.127-0.311-0.252-0.465-0.379c-93.321-76.096-174.65-170.124-238.432-280.599l883.174-509.901l883.568,510.128
				c-0.204,0.352-0.403,0.706-0.606,1.058c-1.847,3.189-3.705,6.367-5.582,9.528c-0.177,0.3-0.351,0.6-0.527,0.898
				c-11.093,18.659-22.693,36.835-34.768,54.524c-0.861,1.259-1.735,2.512-2.603,3.77c-1.404,2.038-2.811,4.075-4.229,6.101
				c-1.847,2.635-3.709,5.261-5.582,7.878c-0.41,0.576-0.818,1.154-1.229,1.729c-81.905,114.019-188.794,212.876-318.272,287.632
				c-72.254,41.716-147.491,73.584-224.156,96.026c-1.287,0.376-2.576,0.74-3.863,1.111c-2.373,0.683-4.747,1.365-7.124,2.031
				c-3.151,0.881-6.308,1.746-9.467,2.599c-0.544,0.146-1.09,0.297-1.636,0.443c-27.299,7.306-54.898,13.482-82.726,18.514
				c-0.341,0.062-0.682,0.124-1.024,0.186c-3.265,0.587-6.536,1.151-9.809,1.706c-1.17,0.198-2.344,0.397-3.513,0.591
				c-2.4,0.398-4.801,0.783-7.204,1.165c-2.207,0.349-4.41,0.695-6.618,1.028c-1.328,0.203-2.659,0.4-3.99,0.598
				c-3.462,0.51-6.925,1.01-10.389,1.483c-0.042,0.006-0.088,0.012-0.132,0.019c-221.548,30.239-446.673-13.731-639.587-122.318
				c-1.035-0.585-2.069-1.177-3.104-1.767c-2.224-1.262-4.445-2.526-6.66-3.807C481.309,1901.983,445.728,1878.268,412.102,1852.748
				z"/>
		</g>
	</g>
</g>
<g display="none">
	<g display="inline">
		<g>
			<path fill="#00A651" d="M625.608,80.051c1.016-0.426,2.036-0.846,3.056-1.269c2.594-1.082,5.19-2.153,7.79-3.212
				c2.176-0.883,4.356-1.755,6.54-2.625c1.394-0.554,2.787-1.111,4.182-1.662c3.339-1.312,6.686-2.61,10.041-3.889
				c0.186-0.07,0.373-0.142,0.56-0.213c112.562-42.77,234.656-66.19,362.221-66.189v1019.804l-883.566,510.127
				c-0.204-0.353-0.411-0.703-0.614-1.054c-1.839-3.193-3.661-6.393-5.461-9.599c-0.171-0.305-0.343-0.604-0.514-0.906
				c-10.613-18.937-20.553-38.07-29.835-57.373c-0.659-1.374-1.308-2.757-1.962-4.138c-1.064-2.235-2.126-4.471-3.172-6.712
				c-1.358-2.916-2.699-5.843-4.03-8.773c-0.294-0.644-0.591-1.287-0.882-1.93C32.169,1312.499-0.001,1170.501,0,1020.991
				c-0.001-83.432,10.02-164.522,28.916-242.138c0.318-1.3,0.647-2.6,0.97-3.9c0.594-2.396,1.193-4.794,1.802-7.185
				c0.812-3.172,1.641-6.336,2.484-9.499c0.145-0.545,0.286-1.093,0.433-1.639c7.322-27.293,15.772-54.285,25.33-80.899
				c0.117-0.327,0.234-0.652,0.351-0.979c1.125-3.124,2.271-6.238,3.428-9.35c0.413-1.113,0.827-2.227,1.245-3.337
				c0.854-2.278,1.722-4.549,2.593-6.822c0.801-2.084,1.603-4.166,2.417-6.245c0.489-1.252,0.984-2.504,1.479-3.755
				c1.289-3.253,2.587-6.502,3.909-9.738c0.017-0.041,0.034-0.083,0.05-0.123c84.586-206.987,235.228-379.966,425.724-492.74
				c1.024-0.606,2.055-1.204,3.083-1.805c2.205-1.295,4.41-2.586,6.626-3.865C548.367,115.366,586.694,96.411,625.608,80.051z"/>
		</g>
	</g>
</g>
</svg>
