<?xml version="1.0" encoding="utf-8"?>
<!-- Generator: Adobe Illustrator 15.0.2, SVG Export Plug-In  -->
<!DOCTYPE svg PUBLIC "-//W3C//DTD SVG 1.0//EN" "http://www.w3.org/TR/2001/REC-SVG-20010904/DTD/svg10.dtd" [
	<!ENTITY ns_flows "http://ns.adobe.com/Flows/1.0/">
]>
<svg version="1.0"
	 xmlns="http://www.w3.org/2000/svg" xmlns:xlink="http://www.w3.org/1999/xlink" xmlns:a="http://ns.adobe.com/AdobeSVGViewerExtensions/3.0/"
	 x="0px" y="0px" width="284px" height="276px" viewBox="22.361 0 284 276"
	 overflow="visible" enable-background="new 22.361 0 284 276" xml:space="preserve">
<defs>
</defs>
<rect x="22.361" width="284" height="276"/>
<rect x="240.361" y="117.653" transform="matrix(0.5001 0.866 -0.866 0.5001 251.6962 -135.6811)" fill="#FFFFFF" width="5.999" height="64.999"/>
<rect x="154.361" y="29.5" transform="matrix(0.8661 0.4999 -0.4999 0.8661 52.0622 -70.358)" fill="#FFFFFF" width="6" height="65"/>
<g>
	<defs>
		<rect id="SVGID_1_" x="22.361" width="284" height="276"/>
	</defs>
	<clipPath id="SVGID_2_">
		<use xlink:href="#SVGID_1_"  overflow="visible"/>
	</clipPath>
	<g clip-path="url(#SVGID_2_)">
		<g>
			<path fill="#FFFFFF" d="M25.93,73.51h-8.628V16.315L0,22.67v-7.793l24.585-9.231h1.345V73.51z"/>
			<path fill="#FFFFFF" d="M95.325,73.51H51.072v-6.169l23.379-25.977c3.463-3.927,5.852-7.121,7.167-9.579
				c1.314-2.459,1.972-5.002,1.972-7.631c0-3.525-1.067-6.417-3.201-8.674c-2.134-2.257-4.979-3.386-8.535-3.386
				c-4.268,0-7.584,1.214-9.95,3.642c-2.366,2.428-3.549,5.806-3.549,10.135h-8.582c0-6.216,2.002-11.241,6.007-15.076
				c4.004-3.834,9.362-5.752,16.073-5.752c6.277,0,11.241,1.646,14.89,4.94c3.648,3.293,5.474,7.677,5.474,13.15
				c0,6.649-4.237,14.565-12.71,23.75L61.416,66.506h33.909V73.51z"/>
		</g>
		<g>
			<path fill="#FFFFFF" d="M250.205,260.566h6.448c4.051-0.062,7.236-1.129,9.556-3.201c2.319-2.071,3.479-4.87,3.479-8.396
				c0-7.916-3.942-11.875-11.828-11.875c-3.711,0-6.673,1.06-8.884,3.178s-3.316,4.925-3.316,8.419h-8.581
				c0-5.35,1.955-9.795,5.867-13.336s8.884-5.312,14.914-5.312c6.37,0,11.364,1.686,14.982,5.056
				c3.618,3.371,5.428,8.057,5.428,14.056c0,2.938-0.951,5.783-2.854,8.535c-1.901,2.753-4.492,4.809-7.77,6.169
				c3.711,1.176,6.579,3.124,8.604,5.845c2.025,2.722,3.039,6.047,3.039,9.974c0,6.062-1.979,10.87-5.938,14.426
				c-3.959,3.557-9.108,5.335-15.447,5.335c-6.34,0-11.496-1.717-15.47-5.149s-5.961-7.962-5.961-13.591h8.628
				c0,3.557,1.16,6.401,3.479,8.535s5.427,3.2,9.323,3.2c4.144,0,7.313-1.082,9.51-3.247c2.195-2.164,3.293-5.271,3.293-9.323
				c0-3.927-1.206-6.942-3.618-9.046c-2.412-2.103-5.891-3.185-10.437-3.247h-6.448V260.566z"/>
		</g>
	</g>
</g>
<circle fill="none" stroke="#6D6D6D" stroke-width="7" stroke-miterlimit="10" cx="53.361" cy="244" r="25"/>
</svg>
