<?xml version="1.0" encoding="utf-8"?>
<!-- Generator: Adobe Illustrator 16.0.4, SVG Export Plug-In . SVG Version: 6.00 Build 0)  -->
<!DOCTYPE svg PUBLIC "-//W3C//DTD SVG 1.0//EN" "http://www.w3.org/TR/2001/REC-SVG-20010904/DTD/svg10.dtd">
<svg version="1.0" id="Layer_1" xmlns="http://www.w3.org/2000/svg" xmlns:xlink="http://www.w3.org/1999/xlink" x="0px" y="0px"
	 width="284px" height="276px" viewBox="0 0 284 276" enable-background="new 0 0 284 276" xml:space="preserve">
<rect width="284" height="276"/>
<rect x="3" fill="#FFFFFF" width="6" height="65"/>
<rect x="20" fill="#FFFFFF" width="6" height="65"/>
<rect x="219" y="267" fill="#FFFFFF" width="65" height="6"/>
<rect x="217" y="118.652" transform="matrix(0.5001 0.866 -0.866 0.5001 240.8832 -114.9509)" fill="#FFFFFF" width="5.999" height="65.001"/>
<rect x="131.5" y="29.499" transform="matrix(0.866 0.5 -0.5 0.866 49.0183 -58.9429)" fill="#FFFFFF" width="6" height="65.001"/>
<rect x="131.048" y="72.282" transform="matrix(0.6041 0.7969 -0.7969 0.6041 194.6342 -36.4936)" fill="#FF0000" width="5.997" height="210.727"/>
<g>
	<line fill="#FFDE17" x1="207.5" y1="256.25" x2="142.75" y2="183.25"/>
	<g>
		<line fill="none" stroke="#FFDE17" stroke-width="4" stroke-miterlimit="10" x1="207.5" y1="256.25" x2="158.769" y2="201.31"/>
		<g>
			<path fill="#FFDE17" d="M142.75,183.25c10.691,5.701,25.423,11.473,36.919,12.954l-18.798,7.476l-9.663,17.769
				C151.109,209.858,147.138,194.542,142.75,183.25z"/>
		</g>
	</g>
</g>
<g>
	<path fill="#FFDE17" d="M204.959,228.939c0.039-2.32,0.303-4.153,0.791-5.499s1.484-2.838,2.988-4.476l3.838-3.949
		c1.641-1.851,2.461-3.839,2.461-5.964c0-2.046-0.537-3.648-1.611-4.809c-1.074-1.159-2.637-1.739-4.688-1.739
		c-1.992,0-3.594,0.527-4.805,1.582s-1.816,2.471-1.816,4.248h-5.42c0.039-3.164,1.167-5.718,3.384-7.661s5.103-2.915,8.657-2.915
		c3.691,0,6.567,0.989,8.628,2.969s3.091,4.695,3.091,8.146c0,3.413-1.582,6.776-4.746,10.092l-3.193,3.159
		c-1.426,1.579-2.139,3.852-2.139,6.815H204.959z M204.725,238.246c0-0.887,0.269-1.631,0.806-2.232s1.333-0.902,2.388-0.902
		s1.855,0.301,2.402,0.902s0.82,1.346,0.82,2.232c0,0.888-0.273,1.622-0.82,2.204c-0.547,0.581-1.348,0.872-2.402,0.872
		s-1.851-0.291-2.388-0.872C204.993,239.868,204.725,239.134,204.725,238.246z"/>
</g>
<g>
</g>
<g>
</g>
<g>
</g>
<g>
</g>
<g>
</g>
<g>
</g>
<g>
</g>
</svg>
