<?xml version="1.0" encoding="utf-8"?>
<!-- Generator: Adobe Illustrator 15.0.2, SVG Export Plug-In . SVG Version: 6.00 Build 0)  -->
<!DOCTYPE svg PUBLIC "-//W3C//DTD SVG 1.1//EN" "http://www.w3.org/Graphics/SVG/1.1/DTD/svg11.dtd">
<svg version="1.1" id="Layer_1" xmlns="http://www.w3.org/2000/svg" xmlns:xlink="http://www.w3.org/1999/xlink" x="0px" y="0px"
	 width="2000px" height="2000px" viewBox="0 0 2000 2000" enable-background="new 0 0 2000 2000" xml:space="preserve">
<g>
	<g>
		<g>
			<path fill="#953B3E" d="M625.608,79.059c1.016-0.426,2.035-0.846,3.056-1.269c2.594-1.082,5.189-2.153,7.79-3.212
				c2.176-0.883,4.355-1.755,6.54-2.625c1.394-0.554,2.787-1.111,4.182-1.662c3.339-1.312,6.687-2.61,10.041-3.889
				c0.187-0.07,0.373-0.142,0.561-0.213C770.337,23.419,892.432,0,1019.997,0v1019.804l-883.566,510.127
				c-0.204-0.353-0.411-0.702-0.614-1.054c-1.839-3.193-3.661-6.393-5.461-9.599c-0.171-0.306-0.343-0.604-0.514-0.906
				c-10.613-18.937-20.553-38.07-29.835-57.373c-0.659-1.374-1.308-2.757-1.962-4.138c-1.064-2.235-2.126-4.471-3.172-6.712
				c-1.358-2.916-2.699-5.844-4.03-8.773c-0.294-0.644-0.591-1.287-0.882-1.93C32.169,1311.506-0.001,1169.509,0,1019.999
				c-0.001-83.432,10.02-164.522,28.916-242.138c0.318-1.301,0.647-2.601,0.97-3.9c0.594-2.396,1.193-4.794,1.802-7.185
				c0.812-3.173,1.641-6.336,2.484-9.499c0.145-0.545,0.286-1.094,0.433-1.64c7.322-27.293,15.772-54.284,25.33-80.898
				c0.117-0.327,0.234-0.652,0.351-0.979c1.125-3.124,2.271-6.237,3.428-9.35c0.413-1.113,0.827-2.228,1.245-3.337
				c0.854-2.278,1.722-4.549,2.593-6.822c0.801-2.084,1.603-4.166,2.417-6.245c0.489-1.252,0.984-2.504,1.479-3.755
				c1.289-3.253,2.587-6.502,3.909-9.738c0.017-0.041,0.034-0.083,0.05-0.123c84.586-206.986,235.228-379.966,425.724-492.74
				c1.024-0.606,2.055-1.204,3.083-1.805c2.205-1.295,4.41-2.586,6.626-3.865C548.367,114.374,586.694,95.418,625.608,79.059z"/>
		</g>
	</g>
</g>
<line fill="none" stroke="#FFFFFF" stroke-width="50" stroke-miterlimit="10" x1="29.848" y1="1030.942" x2="279.848" y2="1030.942"/>
<line fill="none" stroke="#FFFFFF" stroke-width="16.6" stroke-miterlimit="10" x1="925.319" y1="36.419" x2="935.771" y2="135.872"/>
<line fill="none" stroke="#FFFFFF" stroke-width="16.6" stroke-miterlimit="10" x1="35.326" y1="1135.47" x2="134.778" y2="1125.017"/>
<line fill="none" stroke="#FFFFFF" stroke-width="16.6" stroke-miterlimit="10" x1="821.936" y1="52.794" x2="842.727" y2="150.608"/>
<line fill="none" stroke="#FFFFFF" stroke-width="16.6" stroke-miterlimit="10" x1="51.7" y1="1238.854" x2="149.515" y2="1218.062"/>
<line fill="none" stroke="#FFFFFF" stroke-width="16.6" stroke-miterlimit="10" x1="720.831" y1="79.885" x2="751.732" y2="174.991"/>
<line fill="none" stroke="#FFFFFF" stroke-width="16.6" stroke-miterlimit="10" x1="78.791" y1="1339.959" x2="173.897" y2="1309.057"/>
<line fill="none" stroke="#FFFFFF" stroke-width="16.6" stroke-miterlimit="10" x1="623.111" y1="117.396" x2="663.784" y2="208.751"/>
<line fill="none" stroke="#FFFFFF" stroke-width="16.6" stroke-miterlimit="10" x1="116.302" y1="1437.68" x2="207.657" y2="1397.004"/>
<line fill="none" stroke="#FFFFFF" stroke-width="16.6" stroke-miterlimit="10" x1="442.062" y1="221.925" x2="500.839" y2="302.827"/>
<line fill="none" stroke="#FFFFFF" stroke-width="16.6" stroke-miterlimit="10" x1="360.716" y1="287.798" x2="427.628" y2="362.112"/>
<line fill="none" stroke="#FFFFFF" stroke-width="16.6" stroke-miterlimit="10" x1="286.702" y1="361.812" x2="361.016" y2="428.726"/>
<line fill="none" stroke="#FFFFFF" stroke-width="16.6" stroke-miterlimit="10" x1="220.83" y1="443.158" x2="301.731" y2="501.938"/>
<line fill="none" stroke="#FFFFFF" stroke-width="16.6" stroke-miterlimit="10" x1="116.301" y1="624.208" x2="207.656" y2="664.882"/>
<line fill="none" stroke="#FFFFFF" stroke-width="16.6" stroke-miterlimit="10" x1="78.79" y1="721.927" x2="173.896" y2="752.83"/>
<line fill="none" stroke="#FFFFFF" stroke-width="16.6" stroke-miterlimit="10" x1="51.699" y1="823.033" x2="149.514" y2="843.825"/>
<line fill="none" stroke="#FFFFFF" stroke-width="16.6" stroke-miterlimit="10" x1="35.325" y1="926.417" x2="134.778" y2="936.871"/>
<line fill="none" stroke="#FFFFFF" stroke-width="15" stroke-miterlimit="10" x1="148.812" y1="1515.931" x2="365.318" y2="1390.931"/>
<line fill="none" stroke="#FFFFFF" stroke-width="50" stroke-miterlimit="10" x1="994.849" y1="280.941" x2="994.847" y2="30.942"/>
<line fill="none" stroke="#FFFFFF" stroke-width="50" stroke-miterlimit="10" x1="654.85" y1="381.422" x2="529.848" y2="164.917"/>
<line fill="none" stroke="#FFFFFF" stroke-width="50" stroke-miterlimit="10" x1="380.33" y1="655.94" x2="163.822" y2="530.942"/>
</svg>
