<?xml version="1.0" encoding="utf-8"?>
<!-- Generator: Adobe Illustrator 15.0.2, SVG Export Plug-In . SVG Version: 6.00 Build 0)  -->
<!DOCTYPE svg PUBLIC "-//W3C//DTD SVG 1.1//EN" "http://www.w3.org/Graphics/SVG/1.1/DTD/svg11.dtd">
<svg version="1.1" id="Layer_1" xmlns="http://www.w3.org/2000/svg" xmlns:xlink="http://www.w3.org/1999/xlink" x="0px" y="0px"
	 width="2060px" height="2060px" viewBox="0 0 2060 2060" enable-background="new 0 0 2060 2060" xml:space="preserve">
<g>
	<g>
		<g>
			<path fill="#953B3E" d="M625.6,79.1c1-0.4,2-0.8,3.101-1.3c2.6-1.1,5.2-2.2,7.8-3.2c2.2-0.9,4.4-1.8,6.5-2.6
				c1.4-0.6,2.8-1.1,4.2-1.7c3.3-1.3,6.7-2.6,10-3.9c0.2-0.1,0.399-0.1,0.6-0.2C770.3,23.4,892.4,0,1020,0v1019.8L136.4,1529.9
				c-0.2-0.4-0.4-0.7-0.6-1.101c-1.8-3.2-3.7-6.399-5.5-9.6c-0.2-0.3-0.3-0.601-0.5-0.9c-10.6-18.899-20.6-38.1-29.8-57.399
				c-0.7-1.4-1.3-2.801-2-4.101c-1.1-2.2-2.1-4.5-3.2-6.7c-1.4-2.899-2.7-5.8-4-8.8c-0.3-0.6-0.6-1.3-0.9-1.899
				C32.2,1311.5,0,1169.5,0,1020c0-83.4,10-164.5,28.9-242.1c0.3-1.301,0.6-2.601,1-3.9c0.6-2.4,1.2-4.8,1.8-7.2
				c0.8-3.2,1.6-6.3,2.5-9.5c0.1-0.5,0.3-1.1,0.4-1.6c7.3-27.3,15.8-54.3,25.3-80.9c0.1-0.3,0.2-0.7,0.4-1c1.1-3.1,2.3-6.2,3.4-9.3
				c0.4-1.1,0.8-2.2,1.2-3.3c0.9-2.3,1.7-4.5,2.6-6.8c0.8-2.101,1.6-4.2,2.4-6.2c0.5-1.3,1-2.5,1.5-3.8c1.3-3.301,2.6-6.5,3.9-9.7
				V634.6c84.6-207,235.2-380,425.7-492.7c1-0.6,2.1-1.2,3.1-1.8c2.2-1.3,4.4-2.6,6.601-3.9C548.4,114.4,586.7,95.4,625.6,79.1z"/>
		</g>
	</g>
</g>
<line fill="none" stroke="#FFFFFF" stroke-width="50" stroke-miterlimit="10" x1="29.8" y1="1030.9" x2="279.8" y2="1030.9"/>
<line fill="none" stroke="#FFFFFF" stroke-width="16.6" stroke-miterlimit="10" x1="925.3" y1="36.4" x2="935.8" y2="135.9"/>
<line fill="none" stroke="#FFFFFF" stroke-width="16.6" stroke-miterlimit="10" x1="35.3" y1="1135.5" x2="134.8" y2="1125"/>
<line fill="none" stroke="#FFFFFF" stroke-width="16.6" stroke-miterlimit="10" x1="821.9" y1="52.8" x2="842.7" y2="150.6"/>
<line fill="none" stroke="#FFFFFF" stroke-width="16.6" stroke-miterlimit="10" x1="51.7" y1="1238.9" x2="149.5" y2="1218.1"/>
<line fill="none" stroke="#FFFFFF" stroke-width="16.6" stroke-miterlimit="10" x1="720.8" y1="79.9" x2="751.7" y2="175"/>
<line fill="none" stroke="#FFFFFF" stroke-width="16.6" stroke-miterlimit="10" x1="78.8" y1="1340" x2="173.9" y2="1309.1"/>
<line fill="none" stroke="#FFFFFF" stroke-width="16.6" stroke-miterlimit="10" x1="623.1" y1="117.4" x2="663.8" y2="208.8"/>
<line fill="none" stroke="#FFFFFF" stroke-width="16.6" stroke-miterlimit="10" x1="116.3" y1="1437.7" x2="207.7" y2="1397"/>
<line fill="none" stroke="#FFFFFF" stroke-width="16.6" stroke-miterlimit="10" x1="442.1" y1="221.9" x2="500.8" y2="302.8"/>
<line fill="none" stroke="#FFFFFF" stroke-width="16.6" stroke-miterlimit="10" x1="360.7" y1="287.8" x2="427.6" y2="362.1"/>
<line fill="none" stroke="#FFFFFF" stroke-width="16.6" stroke-miterlimit="10" x1="286.7" y1="361.8" x2="361" y2="428.7"/>
<line fill="none" stroke="#FFFFFF" stroke-width="16.6" stroke-miterlimit="10" x1="220.8" y1="443.2" x2="301.7" y2="501.9"/>
<line fill="none" stroke="#FFFFFF" stroke-width="16.6" stroke-miterlimit="10" x1="116.3" y1="624.2" x2="207.7" y2="664.9"/>
<line fill="none" stroke="#FFFFFF" stroke-width="16.6" stroke-miterlimit="10" x1="78.8" y1="721.9" x2="173.9" y2="752.8"/>
<line fill="none" stroke="#FFFFFF" stroke-width="16.6" stroke-miterlimit="10" x1="51.7" y1="823" x2="149.5" y2="843.8"/>
<line fill="none" stroke="#FFFFFF" stroke-width="16.6" stroke-miterlimit="10" x1="35.3" y1="926.4" x2="134.8" y2="936.9"/>
<line fill="none" stroke="#FFFFFF" stroke-width="15" stroke-miterlimit="10" x1="148.8" y1="1515.9" x2="365.3" y2="1390.9"/>
<line fill="none" stroke="#FFFFFF" stroke-width="50" stroke-miterlimit="10" x1="994.8" y1="280.9" x2="994.8" y2="30.9"/>
<line fill="none" stroke="#FFFFFF" stroke-width="50" stroke-miterlimit="10" x1="654.8" y1="381.4" x2="529.8" y2="164.9"/>
<line fill="none" stroke="#FFFFFF" stroke-width="50" stroke-miterlimit="10" x1="380.3" y1="655.9" x2="163.8" y2="530.9"/>
<g>
	<g>
		<g>
			<path fill="#00116A" d="M412.1,1851.8c-0.899-0.7-1.8-1.3-2.6-2c-2.2-1.7-4.5-3.399-6.7-5.1c-1.899-1.4-3.7-2.9-5.5-4.4
				c-1.2-0.899-2.399-1.899-3.5-2.8c-2.8-2.2-5.6-4.5-8.399-6.8c-0.2-0.101-0.301-0.3-0.5-0.4c-93.3-76.1-174.601-170.1-238.4-280.6
				l883.2-509.9l883.6,510.101c-0.2,0.399-0.399,0.699-0.6,1.1c-1.8,3.2-3.7,6.4-5.601,9.5c-0.199,0.3-0.399,0.6-0.5,0.9
				c-11.1,18.699-22.699,36.8-34.8,54.5c-0.899,1.3-1.7,2.5-2.6,3.8c-1.4,2-2.8,4.1-4.2,6.1c-1.8,2.601-3.7,5.3-5.6,7.9
				c-0.4,0.6-0.801,1.2-1.2,1.7c-81.9,114-188.8,212.899-318.3,287.6c-72.301,41.7-147.5,73.6-224.2,96c-1.3,0.4-2.6,0.7-3.9,1.1
				c-2.399,0.7-4.699,1.4-7.1,2c-3.2,0.9-6.3,1.7-9.5,2.601c-0.5,0.1-1.1,0.3-1.6,0.399c-27.301,7.301-54.9,13.5-82.7,18.5
				c-0.3,0.101-0.7,0.101-1,0.2c-3.3,0.6-6.5,1.2-9.8,1.7c-1.2,0.199-2.301,0.399-3.5,0.6c-2.4,0.4-4.801,0.8-7.2,1.2
				c-2.2,0.3-4.4,0.7-6.6,1c-1.301,0.2-2.7,0.399-4,0.601c-3.5,0.5-6.9,1-10.4,1.5h-0.1c-221.5,30.199-446.7-13.7-639.601-122.301
				c-1-0.6-2.1-1.199-3.1-1.8c-2.2-1.3-4.4-2.5-6.7-3.8C481.3,1901,445.7,1877.3,412.1,1851.8z"/>
		</g>
	</g>
</g>
<line fill="none" stroke="#FFFFFF" stroke-width="16.6" stroke-miterlimit="10" x1="529.8" y1="1897" x2="654.8" y2="1680.5"/>
<line fill="none" stroke="#FFFFFF" stroke-width="16.6" stroke-miterlimit="10" x1="1029.8" y1="2030.9" x2="1029.8" y2="1780.9"/>
<line fill="none" stroke="#FFFFFF" stroke-width="16.6" stroke-miterlimit="10" x1="1529.8" y1="1897" x2="1404.8" y2="1680.5"/>
<g>
	<g>
		<g>
			<path fill="#00116A" d="M1434,79.1c-1-0.4-2-0.8-3.1-1.3c-2.601-1.1-5.2-2.2-7.801-3.2c-2.199-0.9-4.399-1.8-6.5-2.6
				c-1.399-0.6-2.8-1.1-4.199-1.7c-3.301-1.3-6.7-2.6-10-3.9c-0.2-0.1-0.4-0.1-0.601-0.2C1289.3,23.4,1167.2,0,1039.6,0v1019.8
				L1923.2,1529.9c0.2-0.4,0.399-0.7,0.6-1.101c1.8-3.2,3.7-6.399,5.5-9.6c0.2-0.3,0.3-0.601,0.5-0.9
				c10.601-18.899,20.601-38.1,29.8-57.399c0.7-1.4,1.301-2.801,2-4.101c1.101-2.2,2.101-4.5,3.2-6.7c1.4-2.899,2.7-5.8,4-8.8
				c0.3-0.6,0.601-1.3,0.9-1.899c57.8-127.9,90-269.9,90-419.4c0-83.4-10-164.5-28.9-242.1c-0.3-1.301-0.6-2.601-1-3.9
				c-0.6-2.4-1.2-4.8-1.8-7.2c-0.8-3.2-1.6-6.3-2.5-9.5c-0.1-0.5-0.3-1.1-0.4-1.6c-7.3-27.3-15.8-54.3-25.3-80.9
				c-0.1-0.3-0.2-0.7-0.4-1c-1.1-3.1-2.3-6.2-3.399-9.3c-0.4-1.1-0.801-2.2-1.2-3.3c-0.9-2.3-1.7-4.5-2.6-6.8
				c-0.801-2.101-1.601-4.2-2.4-6.2c-0.5-1.3-1-2.5-1.5-3.8c-1.3-3.301-2.6-6.5-3.9-9.7V634.6c-84.6-207-235.199-380-425.7-492.7
				c-1-0.6-2.1-1.2-3.1-1.8c-2.2-1.3-4.4-2.6-6.6-3.9C1511.3,114.4,1472.9,95.4,1434,79.1z"/>
		</g>
	</g>
</g>
<line fill="none" stroke="#FFFFFF" stroke-width="16.6" stroke-miterlimit="10" x1="1679.4" y1="655.9" x2="1895.9" y2="530.9"/>
<line fill="none" stroke="#FFFFFF" stroke-width="16.6" stroke-miterlimit="10" x1="1404.8" y1="381.4" x2="1529.8" y2="164.9"/>
<g>
	<g>
		<g>
			<path fill="#FFFFFF" d="M1211.8,281.8h-155.1v-21.6l81.899-91.1c12.101-13.8,20.5-25,25.101-33.6c4.6-8.6,6.899-17.5,6.899-26.7
				c0-12.4-3.699-22.5-11.199-30.4s-17.5-11.9-29.9-11.9c-15,0-26.6,4.3-34.9,12.8c-8.3,8.5-12.399,20.4-12.399,35.5H1052.1
				c0-21.8,7-39.4,21.101-52.8c14-13.4,32.8-20.2,56.3-20.2c22,0,39.4,5.8,52.2,17.3s19.2,26.9,19.2,46.1
				c0,23.3-14.9,51.1-44.601,83.2l-63.399,68.8H1211.8V281.8z"/>
		</g>
	</g>
</g>
<g>
	<g>
		<g>
			<path fill="#FFFFFF" d="M1886.3,995.3h22.601c14.199-0.2,25.399-4,33.5-11.2c8.1-7.3,12.199-17.1,12.199-29.399
				c0-27.7-13.8-41.601-41.5-41.601c-13,0-23.399,3.7-31.1,11.101c-7.8,7.399-11.6,17.3-11.6,29.5H1840.3
				c0-18.8,6.9-34.3,20.601-46.7c13.699-12.4,31.1-18.6,52.3-18.6c22.3,0,39.8,5.899,52.5,17.699c12.7,11.801,19,28.2,19,49.301
				c0,10.3-3.3,20.3-10,29.899c-6.7,9.601-15.7,16.9-27.2,21.601c13,4.1,23.1,10.899,30.2,20.5c7.1,9.5,10.7,21.199,10.7,35
				c0,21.199-6.9,38.1-20.801,50.6c-13.899,12.5-31.899,18.7-54.1,18.7s-40.3-6-54.2-18c-13.899-12-20.899-27.9-20.899-47.601
				h30.199c0,12.5,4.101,22.4,12.2,29.9c8.101,7.5,19,11.2,32.7,11.2c14.5,0,25.6-3.801,33.3-11.4s11.5-18.5,11.5-32.7
				c0-13.8-4.2-24.3-12.7-31.699c-8.5-7.4-20.6-11.2-36.6-11.4h-22.6v-24.7H1886.3z"/>
		</g>
	</g>
</g>
</svg>
