<?xml version="1.0" encoding="utf-8"?>
<!-- Generator: Adobe Illustrator 15.0.2, SVG Export Plug-In  -->
<!DOCTYPE svg PUBLIC "-//W3C//DTD SVG 1.0//EN" "http://www.w3.org/TR/2001/REC-SVG-20010904/DTD/svg10.dtd" [
	<!ENTITY ns_flows "http://ns.adobe.com/Flows/1.0/">
]>
<svg version="1.0"
	 xmlns="http://www.w3.org/2000/svg" xmlns:xlink="http://www.w3.org/1999/xlink" xmlns:a="http://ns.adobe.com/AdobeSVGViewerExtensions/3.0/"
	 x="0px" y="0px" width="284px" height="276px" viewBox="0 0 284 276" overflow="visible" enable-background="new 0 0 284 276"
	 xml:space="preserve">
<defs>
</defs>
<rect width="284" height="276"/>
<rect fill="#FFFFFF" width="12" height="65"/>
<rect x="17" fill="#FFFFFF" width="12" height="65"/>
<rect x="40" y="1" transform="matrix(0.9945 0.1045 -0.1045 0.9945 1.6898 -4.2594)" fill="#FFFFFF" width="3" height="26"/>
<rect x="67" y="5" transform="matrix(0.9781 0.208 -0.208 0.9781 5.2409 -13.8519)" fill="#FFFFFF" width="3.001" height="26"/>
<rect x="93" y="11.001" transform="matrix(0.951 0.3092 -0.3092 0.951 12.0513 -28.0424)" fill="#FFFFFF" width="3.001" height="26"/>
<rect x="118" y="21.002" transform="matrix(0.9135 0.4069 -0.4069 0.9135 24.172 -45.6786)" fill="#FFFFFF" width="3" height="26"/>
<rect x="164.999" y="47.003" transform="matrix(0.8089 0.5879 -0.5879 0.8089 67.0882 -86.4203)" fill="#FFFFFF" width="3" height="26"/>
<rect x="185.999" y="65.003" transform="matrix(0.7431 0.6692 -0.6692 0.7431 100.3713 -105.4337)" fill="#FFFFFF" width="3" height="26"/>
<rect x="203.5" y="85.004" transform="matrix(0.6687 0.7436 -0.7436 0.6687 140.7923 -119.9574)" fill="#FFFFFF" width="3" height="26"/>
<rect x="220.998" y="105.004" transform="matrix(0.5875 0.8092 -0.8092 0.5875 187.2619 -131.3728)" fill="#FFFFFF" width="3" height="26"/>
<rect x="247.998" y="152.005" transform="matrix(0.4067 0.9136 -0.9136 0.4067 298.7845 -130.0314)" fill="#FFFFFF" width="2.999" height="25.999"/>
<rect x="257.997" y="178.005" transform="matrix(0.3092 0.951 -0.951 0.3092 360.9092 -114.8336)" fill="#FFFFFF" width="3.001" height="25.999"/>
<rect x="263.996" y="203.005" transform="matrix(0.2079 0.9781 -0.9781 0.2079 421.5761 -88.6026)" fill="#FFFFFF" width="3.001" height="26"/>
<rect x="267.996" y="230.005" transform="matrix(0.1048 0.9945 -0.9945 0.1048 482.9236 -50.4712)" fill="#FFFFFF" width="3.001" height="26"/>
<rect x="129" y="29.354" transform="matrix(0.866 0.5 -0.5 0.866 49.017 -59.2154)" fill="#FFFFFF" width="11.999" height="65"/>
<rect x="214" y="118" transform="matrix(0.5 0.866 -0.866 0.5 240.3477 -115.2737)" fill="#FFFFFF" width="11.999" height="65"/>
<rect x="219" y="264" fill="#FFFFFF" width="65" height="12"/>
<circle fill="none" stroke="#6D6D6D" stroke-width="7" stroke-miterlimit="10" cx="31" cy="244" r="25"/>
</svg>
