<?xml version="1.0" encoding="utf-8"?>
<!-- Generator: Adobe Illustrator 15.0.2, SVG Export Plug-In . SVG Version: 6.00 Build 0)  -->
<!DOCTYPE svg PUBLIC "-//W3C//DTD SVG 1.1//EN" "http://www.w3.org/Graphics/SVG/1.1/DTD/svg11.dtd">
<svg version="1.1" id="Layer_1" xmlns="http://www.w3.org/2000/svg" xmlns:xlink="http://www.w3.org/1999/xlink" x="0px" y="0px"
	 width="313.253px" height="283.922px" viewBox="0 0 313.253 283.922" enable-background="new 0 0 313.253 283.922"
	 xml:space="preserve">
<g>
	<g id="directionswalk">
		<path fill="#FFFFFF" d="M184.678,70.72c10.025,0,18.047-8.021,18.047-18.046c0-10.026-8.021-18.047-18.047-18.047
			c-10.027,0-18.047,8.021-18.047,18.047C166.631,62.699,174.653,70.72,184.678,70.72z M185.682,132.879h49.126v-18.046h-36.093
			l-20.053-33.085c-3.008-5.013-9.021-9.023-15.037-9.023c-2.006,0-3.008,0-5.014,1.003l-54.14,17.043v52.134h18.047V105.81
			l21.053-7.018l-39.1,154.397h18.047l29.075-81.209l23.059,31.079v50.13H192.7v-64.165l-25.064-45.116l7.018-29.074
			L185.682,132.879z"/>
	</g>
</g>
<path fill="none" stroke="#00FF00" stroke-width="13" stroke-miterlimit="10" d="M21.127,141.961c0-74.837,60.663-135.5,135.5-135.5
	s135.5,60.663,135.5,135.5c0,74.837-60.663,135.5-135.5,135.5S21.127,216.798,21.127,141.961z"/>
</svg>
